<?xml version="1.0" encoding="iso-8859-1"?>
<!-- Generator: Adobe Illustrator 18.0.0, SVG Export Plug-In . SVG Version: 6.00 Build 0)  -->
<!DOCTYPE svg PUBLIC "-//W3C//DTD SVG 1.1//EN" "http://www.w3.org/Graphics/SVG/1.1/DTD/svg11.dtd">
<svg version="1.1" id="Capa_1" xmlns="http://www.w3.org/2000/svg" xmlns:xlink="http://www.w3.org/1999/xlink" x="0px" y="0px"
	 viewBox="0 0 410.041 410.041" xml:space="preserve" fill="white">
<g>
	<path d="M301.888,149.679c1.876,1.876,4.419,2.929,7.071,2.929s5.196-1.054,7.071-2.929l25.518-25.521
		c3.905-3.906,3.905-10.237-0.001-14.142c-3.904-3.905-10.237-3.905-14.142,0l-8.446,8.447V27.575c0-5.523-4.478-10-10-10
		s-10,4.477-10,10v90.891l-8.448-8.449c-3.905-3.905-10.235-3.905-14.143,0c-3.905,3.905-3.905,10.237,0,14.142L301.888,149.679z"/>
	<path d="M344.951,246.179c0-23.954-19.516-43.469-43.504-43.469c-5.296,0-10.546,0.937-15.492,2.721
		c-7.306-13.762-21.778-23.152-38.4-23.152c-3.739,0-7.367,0.441-10.831,1.269l-0.015-140.046C236.709,19.516,217.194,0,193.207,0
		c-11.496,0-22.337,4.443-30.525,12.511c-8.176,8.055-12.78,18.808-12.968,30.278l-0.003,0.163v0.164v12.842
		c-3.483-0.874-7.123-1.342-10.855-1.342c-23.987,0-43.502,19.516-43.502,43.504v129.642c-15.784,5.51-29.604,20.189-30.193,41.04
		c-0.917,32.575,1.762,73.801,30.855,103.725c24.542,25.243,62.893,37.514,117.242,37.514c48.934,0,85.146-14.42,107.629-42.859
		c15.792-19.975,24.139-46.874,24.139-77.787L344.951,246.179z M213.258,390.041c-114.588,0-129.867-58.086-128.105-120.675
		c0.426-15.095,13.402-24.011,24.012-24.011v27.683c0,3.482,2.414,3.887,3.135,3.887c0.721,0,3.055-0.396,3.055-3.878
		c0-3.361,0-174.927,0-174.927c0-12.98,10.521-23.504,23.502-23.504c11.91,0,23.287,9.064,23.287,20.35
		c0.008,0.043-0.086,112.092-0.086,112.092c0,2.114,1.713,3.827,3.828,3.827c2.111,0,3.826-1.713,3.826-3.827V43.116
		C169.92,30.316,180.356,20,193.207,20c12.979,0,23.502,10.524,23.502,23.504l0.02,179.815c0,2.083,1.688,3.77,3.77,3.77
		c2.08,0,3.768-1.687,3.768-3.77l-0.008-0.974c0-11.818,11.484-20.067,23.297-20.067c12.982,0,23.455,10.523,23.455,23.504
		l0.047,17.227c0,2.026,1.643,3.668,3.67,3.668c2.025,0,3.666-1.642,3.666-3.668l-0.012-1.311c0-10.748,11.629-18.988,23.066-18.988
		c12.98,0,23.504,10.523,23.504,23.503l0.074,43.182C325.025,329.556,309.406,390.041,213.258,390.041z"/>
</g>
</svg>
